#N canvas 383 150 945 529 10;
#X obj 268 73 bng 15 250 50 0 empty empty empty 17 7 0 10 -262144 -1
-1;
#X msg 310 74 stop;
#X obj 291 149 bng 15 250 50 0 empty empty empty 17 7 0 10 -262144
-1 -1;
#N canvas 117 227 837 497 teste2 0;
#X obj 250 239 bng 15 250 50 0 empty empty empty 17 7 0 10 -262144
-1 -1;
#X obj 384 320 bng 15 250 50 0 empty empty empty 17 7 0 10 -262144
-1 -1;
#X obj 630 30 bng 15 250 50 0 empty empty empty 17 7 0 10 -262144 -1
-1;
#X obj 681 69 bng 15 250 50 0 empty empty empty 17 7 0 10 -262144 -1
-1;
#X obj 821 0 bng 15 250 50 0 empty empty empty 17 7 0 10 -262144 -1
-1;
#X obj 771 80 bng 15 250 50 0 empty empty empty 17 7 0 10 -262144 -1
-1;
#X obj 691 0 bng 15 250 50 0 empty empty empty 17 7 0 10 -262144 -1
-1;
#X obj 747 289 bng 15 250 50 0 empty empty empty 17 7 0 10 -262144
-1 -1;
#X obj 773 88 bng 15 250 50 0 empty empty empty 17 7 0 10 -262144 -1
-1;
#X obj 303 220 bng 15 250 50 0 empty empty empty 17 7 0 10 -262144
-1 -1;
#X obj 50 0 bng 15 250 50 0 empty empty empty 17 7 0 10 -262144 -1
-1;
#X obj 100 139 bng 15 250 50 0 empty empty empty 17 7 0 10 -262144
-1 -1;
#X obj 270 150 bng 15 250 50 0 empty empty empty 17 7 0 10 -262144
-1 -1;
#X obj 150 289 bng 15 250 50 0 empty empty empty 17 7 0 10 -262144
-1 -1;
#X obj 200 0 bng 15 250 50 0 empty empty empty 17 7 0 10 -262144 -1
-1;
#X obj 597 0 bng 15 250 50 0 empty empty empty 17 7 0 10 -262144 -1
-1;
#X obj 769 0 bng 15 250 50 0 empty empty empty 17 7 0 10 -262144 -1
-1;
#X obj 120 419 bng 15 250 50 0 empty empty empty 17 7 0 10 -262144
-1 -1;
#X obj 310 99 bng 15 250 50 0 empty empty empty 17 7 0 10 -262144 -1
-1;
#X obj 140 280 bng 15 250 50 0 empty empty empty 17 7 0 10 -262144
-1 -1;
#X obj 491 289 vsl 15 128 0 127 0 0 empty empty empty 0 -9 0 10 -262144
-1 -1 0 1;
#X obj 536 50 hsl 128 15 0 127 0 0 empty empty empty -2 -8 0 10 -262144
-1 -1 0 1;
#X obj 299 50 vradio 15 1 0 8 empty empty empty 0 -8 0 10 -262144 -1
-1 0;
#X obj 636 228 hradio 15 1 0 8 empty empty empty 0 -8 0 10 -262144
-1 -1 0;
#X obj 360 372 vu 15 120 empty empty -1 -8 0 10 -66577 -1 1 0;
#X obj 170 50 cnv 15 100 60 empty empty empty 20 12 0 14 -233017 -66577
0;
#N canvas 0 0 450 300 (subpatch) 0;
#X coords 0 1 100 -1 200 140 1;
#X restore 582 40 graph;
#N canvas 0 0 450 300 (subpatch) 0;
#X array array1 100 float 3;
#A 0 0 0 0 0 0 0 0 0 0 0 0 0 0 0 0 0 0 0 0 0 0 0 0 0 0 0 0 0 0 0 0
0 0 0 0 0 0 0 0 0 0 0 0 0 0 0 0 0 0 0 0 0 0 0 0 0 0 0 0 0 0 0 0 0 0
0 0 0 0 0 0 0 0 0 0 0 0 0 0 0 0 0 0 0 0 0 0 0 0 0 0 0 0 0 0 0 0 0 0
0;
#X coords 0 1 99 -1 200 140 1;
#X restore 486 120 graph;
#X obj 821 0 bng 15 250 50 0 empty empty empty 17 7 0 10 -262144 -1
-1;
#X obj 553 50 bng 15 250 50 0 empty empty empty 17 7 0 10 -262144 -1
-1;
#X obj 622 0 bng 15 250 50 0 empty empty empty 17 7 0 10 -262144 -1
-1;
#X obj 771 70 bng 15 250 50 0 empty empty empty 17 7 0 10 -262144 -1
-1;
#X obj 581 170 bng 15 250 50 0 empty empty empty 17 7 0 10 -262144
-1 -1;
#X obj 373 149 bng 15 250 50 0 empty empty empty 17 7 0 10 -262144
-1 -1;
#X obj 579 99 bng 15 250 50 0 empty empty empty 17 7 0 10 -262144 -1
-1;
#X obj 621 50 bng 15 250 50 0 empty empty empty 17 7 0 10 -262144 -1
-1;
#X obj 821 0 bng 15 250 50 0 empty empty empty 17 7 0 10 -262144 -1
-1;
#X obj 714 89 bng 15 250 50 0 empty empty empty 17 7 0 10 -262144 -1
-1;
#X obj 541 100 bng 15 250 50 0 empty empty empty 17 7 0 10 -262144
-1 -1;
#X obj 771 169 bng 15 250 50 0 empty empty empty 17 7 0 10 -262144
-1 -1;
#X obj 596 239 bng 15 250 50 0 empty empty empty 17 7 0 10 -262144
-1 -1;
#X obj 746 131 bng 15 250 50 0 empty empty empty 17 7 0 10 -262144
-1 -1;
#X obj 667 70 bng 15 250 50 0 empty empty empty 17 7 0 10 -262144 -1
-1;
#X obj 771 120 bng 15 250 50 0 empty empty empty 17 7 0 10 -262144
-1 -1;
#X obj 70 200 bng 15 250 50 0 empty empty empty 17 7 0 10 -262144 -1
-1;
#X obj 801 0 bng 15 250 50 0 empty empty empty 17 7 0 10 -262144 -1
-1;
#X obj 821 180 bng 15 250 50 0 empty empty empty 17 7 0 10 -262144
-1 -1;
#X obj 671 120 bng 15 250 50 0 empty empty empty 17 7 0 10 -262144
-1 -1;
#X obj 771 160 bng 15 250 50 0 empty empty empty 17 7 0 10 -262144
-1 -1;
#X obj 764 30 bng 15 250 50 0 empty empty empty 17 7 0 10 -262144 -1
-1;
#X obj 421 70 bng 15 250 50 0 empty empty empty 17 7 0 10 -262144 -1
-1;
#X obj 771 120 bng 15 250 50 0 empty empty empty 17 7 0 10 -262144
-1 -1;
#X obj 390 479 bng 15 250 50 0 empty empty empty 17 7 0 10 -262144
-1 -1;
#X obj 464 339 bng 15 250 50 0 empty empty empty 17 7 0 10 -262144
-1 -1;
#X obj 640 120 bng 15 250 50 0 empty empty empty 17 7 0 10 -262144
-1 -1;
#X obj 489 170 bng 15 250 50 0 empty empty empty 17 7 0 10 -262144
-1 -1;
#X msg 330 0 stop;
#X obj 223 220 tgl 15 0 empty empty empty 17 7 0 10 -262144 -1 -1 0
1;
#X obj 227 270 tgl 15 0 empty empty empty 17 7 0 10 -262144 -1 -1 0
1;
#X obj 658 120 tgl 15 0 empty empty empty 17 7 0 10 -262144 -1 -1 0
1;
#X obj 577 205 tgl 15 0 empty empty empty 17 7 0 10 -262144 -1 -1 0
1;
#X obj 200 30 tgl 15 0 empty empty empty 17 7 0 10 -262144 -1 -1 0
1;
#X obj 393 200 tgl 15 0 empty empty empty 17 7 0 10 -262144 -1 -1 0
1;
#X obj 671 249 tgl 15 0 empty empty empty 17 7 0 10 -262144 -1 -1 0
1;
#X obj 468 0 tgl 60 0 empty empty empty 17 7 0 10 -4160 -1 -1 0 1;
#X obj 707 0 tgl 50 0 empty empty empty 17 7 0 10 -258113 -1 -1 0 1
;
#X obj 700 130 tgl 15 0 empty empty empty 17 7 0 10 -262144 -1 -1 0
1;
#X obj 699 139 tgl 15 0 empty empty empty 17 7 0 10 -262144 -1 -1 0
1;
#X obj 693 439 tgl 15 0 empty empty empty 17 7 0 10 -262144 -1 -1 0
1;
#X obj 420 169 tgl 15 0 empty empty empty 17 7 0 10 -262144 -1 -1 0
1;
#X obj 340 409 tgl 15 0 empty empty empty 17 7 0 10 -262144 -1 -1 0
1;
#X obj 260 170 tgl 15 0 empty empty empty 17 7 0 10 -262144 -1 -1 0
1;
#X obj 150 20 tgl 15 0 empty empty empty 17 7 0 10 -262144 -1 -1 0
1;
#X obj 801 429 tgl 15 0 empty empty empty 17 7 0 10 -262144 -1 -1 0
1;
#X obj 644 149 tgl 15 0 empty empty empty 17 7 0 10 -262144 -1 -1 0
1;
#X obj 220 124 tgl 80 0 empty empty empty 17 7 0 10 -4034 -1 -1 1 1
;
#X obj 490 170 tgl 60 0 empty empty empty 17 7 0 10 -159808 -1 -1 1
1;
#X obj 748 160 metro 500;
#X obj 651 50 osc~ 440;
#X obj 320 40 dac~;
#X obj 411 0 bng 15 250 50 0 empty empty empty 17 7 0 10 -262144 -1
-1;
#X obj 672 70 metro 1000;
#X msg 100 344 stop;
#X obj 441 50 bng 15 250 50 0 empty empty empty 17 7 0 10 -262144 -1
-1;
#X obj 612 297 saci teste;
#X connect 4 0 29 0;
#X connect 8 0 30 0;
#X connect 12 0 31 0;
#X connect 15 0 33 0;
#X connect 28 0 77 0;
#X connect 29 0 8 0;
#X connect 30 0 12 0;
#X connect 31 0 32 0;
#X connect 32 0 1 0;
#X connect 32 0 36 0;
#X connect 32 0 23 0;
#X connect 32 0 41 0;
#X connect 33 0 42 0;
#X connect 34 0 44 0;
#X connect 36 0 48 0;
#X connect 40 0 36 0;
#X connect 40 0 15 0;
#X connect 41 0 40 0;
#X connect 42 0 43 0;
#X connect 43 0 34 0;
#X connect 44 0 40 0;
#X connect 44 0 36 0;
#X connect 52 0 44 0;
#X connect 56 0 77 0;
#X connect 64 0 75 0;
#X connect 64 0 76 0;
#X connect 65 0 77 0;
#X connect 77 0 64 0;
#X connect 78 0 79 0;
#X connect 80 0 81 0;
#X connect 81 0 84 0;
#X connect 82 0 81 0;
#X connect 83 0 84 0;
#X restore 422 349 pd teste2;
#X obj 579 277 bng 15 250 50 0 empty empty empty 17 7 0 10 -262144
-1 -1;
#X msg 622 277 stop;
#X obj 610 345 bng 15 250 50 0 empty empty empty 17 7 0 10 -262144
-1 -1;
#X obj 594 307 metro 200;
#N canvas 134 156 770 510 teste 0;
#X obj 270 88 cnv 50 400 300 empty empty dance 20 12 0 14 -233017 -66577
0;
#X msg 477 404 right;
#X msg 57 404 top;
#X msg 418 290 middle;
#X msg 50 418 bottom;
#X msg 70 443 xstep 10;
#X msg 615 368 ystep 10;
#X obj 66 373 bng 15 250 50 0 empty empty empty 17 7 0 10 -262144 -1
-1;
#X msg 137 406 width;
#X obj 451 364 bng 15 250 50 0 empty empty empty 17 7 0 10 -262144
-1 -1;
#X obj 595 413 metro 1000;
#X msg 326 378 stop;
#X obj 182 433 bng 15 250 50 0 empty empty empty 17 7 0 10 -262144
-1 -1;
#X obj 511 427 saci teste;
#X connect 1 0 7 0;
#X connect 1 0 3 0;
#X connect 2 0 4 0;
#X connect 4 0 7 0;
#X connect 5 0 7 0;
#X connect 6 0 7 0;
#X connect 8 0 5 0;
#X connect 9 0 10 0;
#X connect 10 0 13 0;
#X connect 11 0 10 0;
#X connect 12 0 13 0;
#X coords 600 0 1 1 0 0 0;
#X restore 258 352 pd teste;
#X obj 610 452 saci teste2;
#N canvas 66 160 432 423 patch2 0;
#N canvas 893 460 450 300 patch3 0;
#N canvas 907 467 450 300 patch4 0;
#N canvas 220 215 450 300 patch5 0;
#X obj 54 60 bng 15 250 50 0 empty empty empty 17 7 0 10 -262144 -1
-1;
#X msg 97 56 stop;
#X obj 79 134 bng 15 250 50 0 empty empty empty 17 7 0 10 -262144 -1
-1;
#X obj 64 93 metro 100;
#X obj 64 192 saci teste2 1;
#X connect 0 0 3 0;
#X connect 1 0 3 0;
#X connect 2 0 4 0;
#X connect 3 0 4 0;
#X restore 95 46 pd patch5;
#X restore 60 144 pd patch4;
#X obj 229 -16 bng 15 250 50 0 empty empty empty 17 7 0 10 -262144
-1 -1;
#X msg 263 0 stop;
#X obj 303 75 bng 15 250 50 0 empty empty empty 17 7 0 10 -262144 -1
-1;
#X obj 234 29 metro 200;
#X obj 273 132 saci;
#X msg 161 61 set teste;
#X msg 146 24 set;
#X connect 1 0 4 0;
#X connect 2 0 4 0;
#X connect 3 0 5 0;
#X connect 4 0 5 0;
#X connect 6 0 5 0;
#X connect 7 0 5 0;
#X restore 100 0 pd patch3;
#X restore 342 349 pd patch2;
#X text 556 147 <- Change the target subpatch;
#X obj 132 281 bng 15 250 50 0 empty empty empty 17 7 0 10 -262144
-1 -1;
#X obj 133 320 saci;
#X text 160 326 <- No argments means this patch;
#X msg 491 182 set;
#X text 513 181 <- This patch / subpatch;
#X text 365 277 <- Bang it!;
#X msg 490 206 set teste;
#X obj 280 110 metro 200;
#X msg 721 287 step 10;
#X msg 719 263 step 1;
#X msg 166 67 xstep 1000;
#X msg 168 91 ystep 10;
#X msg 169 181 xstep 1;
#X msg 171 205 ystep 0;
#X msg 169 121 xstep 50;
#X msg 170 157 ystep 200;
#X text 329 260 Parameters: subpatch name xstep ystep;
#N canvas 70 540 495 209 sub 1;
#X obj 360 66 bng 15 250 50 0 empty empty empty 17 7 0 10 -262144 -1
-1;
#X msg 251 149;
#X obj 90 164;
#X obj 60 124 saci;
#X text 307 166 comment;
#X obj 61 164 osc~ 440;
#X symbolatom 300 180 10 0 0 0 - - -;
#X floatatom 362 150 5 0 0 0 - - -;
#X floatatom 300 10 5 0 0 0 - - -;
#X obj 79 0 vradio 15 1 0 8 empty empty empty 0 -8 0 10 -262144 -1
-1 0;
#X obj 317 16 vsl 15 128 0 127 0 0 empty empty empty 0 -9 0 10 -262144
-1 -1 0 1;
#X obj 167 89 hsl 128 15 0 127 0 0 empty empty empty -2 -8 0 10 -262144
-1 -1 0 1;
#X obj 182 24 tgl 15 0 empty empty empty 17 7 0 10 -262144 -1 -1 1
1;
#X restore 176 377 pd sub;
#X msg 77 47 xstep \$1;
#X obj 138 -14 hsl 128 15 0 127 0 0 empty empty empty -2 -8 0 10 -262144
-1 -1 0 1;
#X floatatom 135 14 5 0 0 0 - - -;
#X msg 250 44 ystep \$1;
#X msg 485 157 set teste2;
#X obj 265 277 saci sub 10 10;
#X msg 366 2 mode left;
#X text 365 -20 Modes:left \, right \, up \, down \, random;
#X msg 372 24 mode right;
#X msg 379 43 mode up;
#X msg 386 64 mode down;
#X msg 393 87 mode random;
#X text 511 33 Objects to move: bng \, cnv \, message \, text \, vu
\, hradio \, vradio \, vsl \, hsl \, nbx \, tgl \, gatom and objects
name like saci;
#X msg 509 74 objs bng cnv saci text;
#X msg 510 97 objs vradio message nbx gatom;
#X msg 512 122 allobjs;
#X text 568 121 Move all objects;
#X text 721 234 Set X step and Y step;
#X msg 746 323 mode left;
#X msg 752 345 mode right;
#X msg 759 364 mode up;
#X msg 766 385 mode down;
#X msg 773 408 mode random;
#X connect 0 0 19 0;
#X connect 1 0 19 0;
#X connect 2 0 35 0;
#X connect 4 0 7 0;
#X connect 5 0 7 0;
#X connect 6 0 9 0;
#X connect 7 0 9 0;
#X connect 12 0 13 0;
#X connect 15 0 35 0;
#X connect 18 0 35 0;
#X connect 19 0 35 0;
#X connect 20 0 9 0;
#X connect 21 0 9 0;
#X connect 22 0 35 0;
#X connect 23 0 35 0;
#X connect 24 0 35 0;
#X connect 25 0 35 0;
#X connect 26 0 35 0;
#X connect 27 0 35 0;
#X connect 30 0 35 0;
#X connect 31 0 32 0;
#X connect 32 0 33 0;
#X connect 32 0 30 0;
#X connect 33 0 35 0;
#X connect 34 0 35 0;
#X connect 36 0 35 0;
#X connect 38 0 35 0;
#X connect 39 0 35 0;
#X connect 40 0 35 0;
#X connect 41 0 35 0;
#X connect 43 0 35 0;
#X connect 44 0 35 0;
#X connect 45 0 35 0;
#X connect 48 0 9 0;
#X connect 49 0 9 0;
#X connect 50 0 9 0;
#X connect 51 0 9 0;
#X connect 52 0 9 0;
#X coords 179550 0 179151 1 257 72 0;
